HIERARCHY
ROOT hip
{
  OFFSET 0 0 0
  CHANNELS 6 Xposition Yposition Zposition Zrotation Yrotation Xrotation
  JOINT abdomen
  {
    OFFSET 0 20.6881 -0.73152
    CHANNELS 3 Zrotation Xrotation Yrotation
    JOINT chest
    {
      OFFSET 0 11.7043 -0.48768
      CHANNELS 3 Zrotation Xrotation Yrotation
      JOINT neck
      {
        OFFSET 0 22.1894 -2.19456
        CHANNELS 3 Zrotation Xrotation Yrotation
        JOINT head
        {
          OFFSET -0.24384 7.07133 1.2192
          CHANNELS 3 Zrotation Xrotation Yrotation
          JOINT leftEye
          {
            OFFSET 4.14528 8.04674 8.04672
            CHANNELS 3 Zrotation Xrotation Yrotation
            End Site
            {
              OFFSET 1 0 0
            }
          }
          JOINT rightEye
          {
            OFFSET -3.6576 8.04674 8.04672
            CHANNELS 3 Zrotation Xrotation Yrotation
            End Site
            {
              OFFSET 1 0 0
            }
          }
        }
      }
      JOINT rCollar
      {
        OFFSET -2.68224 19.2634 -4.8768
        CHANNELS 3 Zrotation Xrotation Yrotation
        JOINT rShldr
        {
          OFFSET -8.77824 -1.95073 1.46304
          CHANNELS 3 Zrotation Xrotation Yrotation
          JOINT rForeArm
          {
            OFFSET -28.1742 -1.7115 0.48768
            CHANNELS 3 Zrotation Xrotation Yrotation
            JOINT rHand
            {
              OFFSET -22.5879 0.773209 7.07136
              CHANNELS 3 Zrotation Xrotation Yrotation
              JOINT rThumb1
              {
                OFFSET -1.2192 -0.487915 3.41376
                CHANNELS 3 Zrotation Xrotation Yrotation
                JOINT rThumb2
                {
                  OFFSET -3.37035 -0.52449 3.41376
                  CHANNELS 3 Zrotation Xrotation Yrotation
                  End Site
                  {
                    OFFSET -1.78271 -1.18214 1.43049
                  }
                }
              }
              JOINT rIndex1
              {
                OFFSET -7.75947 0.938293 5.60832
                CHANNELS 3 Zrotation Xrotation Yrotation
                JOINT rIndex2
                {
                  OFFSET -2.54057 -0.884171 1.56538
                  CHANNELS 3 Zrotation Xrotation Yrotation
                  End Site
                  {
                    OFFSET -1.62519 -0.234802 1.16502
                  }
                }
              }
              JOINT rMid1
              {
                OFFSET -8.24714 1.18213 3.41376
                CHANNELS 3 Zrotation Xrotation Yrotation
                JOINT rMid2
                {
                  OFFSET -3.10165 -0.590103 1.0647
                  CHANNELS 3 Zrotation Xrotation Yrotation
                  End Site
                  {
                    OFFSET -2.48547 -0.328903 0.83742
                  }
                }
              }
              JOINT rRing1
              {
                OFFSET -8.82822 0.546677 1.51678
                CHANNELS 3 Zrotation Xrotation Yrotation
                JOINT rRing2
                {
                  OFFSET -2.60934 -0.819778 -0.0198488
                  CHANNELS 3 Zrotation Xrotation Yrotation
                  End Site
                  {
                    OFFSET -2.33842 -0.294052 0.168128
                  }
                }
              }
              JOINT rPinky1
              {
                OFFSET -8.27202 -0.0477905 -0.4584
                CHANNELS 3 Zrotation Xrotation Yrotation
                JOINT rPinky2
                {
                  OFFSET -1.82734 -0.647385 -0.700984
                  CHANNELS 3 Zrotation Xrotation Yrotation
                  End Site
                  {
                    OFFSET -1.69225 -0.51767 -0.607171
                  }
                }
              }
            }
          }
        }
      }
      JOINT lCollar
      {
        OFFSET 2.68224 19.2634 -4.8768
        CHANNELS 3 Zrotation Xrotation Yrotation
        JOINT lShldr
        {
          OFFSET 8.77824 -1.95073 1.46304
          CHANNELS 3 Zrotation Xrotation Yrotation
          JOINT lForeArm
          {
            OFFSET 28.1742 -1.7115 0.48768
            CHANNELS 3 Zrotation Xrotation Yrotation
            JOINT lHand
            {
              OFFSET 22.5879 0.773209 7.07136
              CHANNELS 3 Zrotation Xrotation Yrotation
              JOINT lThumb1
              {
                OFFSET 1.2192 -0.487915 3.41376
                CHANNELS 3 Zrotation Xrotation Yrotation
                JOINT lThumb2
                {
                  OFFSET 3.37035 -0.52449 3.41376
                  CHANNELS 3 Zrotation Xrotation Yrotation
                  End Site
                  {
                    OFFSET 1.78271 -1.18214 1.43049
                  }
                }
              }
              JOINT lIndex1
              {
                OFFSET 7.75947 0.938293 5.60832
                CHANNELS 3 Zrotation Xrotation Yrotation
                JOINT lIndex2
                {
                  OFFSET 2.54057 -0.884171 1.56538
                  CHANNELS 3 Zrotation Xrotation Yrotation
                  End Site
                  {
                    OFFSET 1.62519 -0.234802 1.16502
                  }
                }
              }
              JOINT lMid1
              {
                OFFSET 8.24714 1.18213 3.41376
                CHANNELS 3 Zrotation Xrotation Yrotation
                JOINT lMid2
                {
                  OFFSET 3.10165 -0.590103 1.0647
                  CHANNELS 3 Zrotation Xrotation Yrotation
                  End Site
                  {
                    OFFSET 2.48547 -0.328903 0.83742
                  }
                }
              }
              JOINT lRing1
              {
                OFFSET 8.82822 0.546677 1.51678
                CHANNELS 3 Zrotation Xrotation Yrotation
                JOINT lRing2
                {
                  OFFSET 2.60934 -0.819778 -0.0198488
                  CHANNELS 3 Zrotation Xrotation Yrotation
                  End Site
                  {
                    OFFSET 2.33842 -0.294052 0.168128
                  }
                }
              }
              JOINT lPinky1
              {
                OFFSET 8.27202 -0.0477905 -0.4584
                CHANNELS 3 Zrotation Xrotation Yrotation
                JOINT lPinky2
                {
                  OFFSET 1.82734 -0.647385 -0.700984
                  CHANNELS 3 Zrotation Xrotation Yrotation
                  End Site
                  {
                    OFFSET 1.69225 -0.51767 -0.607171
                  }
                }
              }
            }
          }
        }
      }
    }
  }
  JOINT rButtock
  {
    OFFSET -8.77824 4.35084 1.2192
    CHANNELS 3 Zrotation Xrotation Yrotation
    JOINT rThigh
    {
      OFFSET 0 -1.70687 -2.19456
      CHANNELS 3 Zrotation Xrotation Yrotation
      JOINT rShin
      {
        OFFSET 0 -36.8199 0.73152
        CHANNELS 3 Zrotation Xrotation Yrotation
        JOINT rFoot
        {
          OFFSET 0.73152 -45.1104 -5.12064
          CHANNELS 3 Zrotation Xrotation Yrotation
          End Site
          {
            OFFSET -1.1221 -3.69964 12.103
          }
        }
      }
    }
  }
  JOINT lButtock
  {
    OFFSET 8.77824 4.35084 1.2192
    CHANNELS 3 Zrotation Xrotation Yrotation
    JOINT lThigh
    {
      OFFSET 0 -1.70687 -2.19456
      CHANNELS 3 Zrotation Xrotation Yrotation
      JOINT lShin
      {
        OFFSET 0 -36.8199 0.73152
        CHANNELS 3 Zrotation Xrotation Yrotation
        JOINT lFoot
        {
          OFFSET -0.73152 -45.1104 -5.12064
          CHANNELS 3 Zrotation Xrotation Yrotation
          End Site
          {
            OFFSET 1.1221 -3.69964 12.103
          }
        }
      }
    }
  }
}
MOTION
Frames:	4
Frame Time:	0.03333
-1.4939000066078734 63.73429894447327 10.707000084221363 -17.62499920979984 -17.84929920704847 368.6480130543893 18.824699739397776 7.665769753636369 2.652940029064275 1.1000600224384987 -8.113049814076533 0.9968300374268069 0.31144099142268444 13.058899928883132 5.212869957105901 3.4463800530562074 -22.465200812298328 10.941999762627216 -0.0 0.0 0.0 -0.0 0.0 0.0 1.1641199943523427e-12 6.840170220225748e-13 2.1642700096586468e-13 107.6340004885095 42.477301618146136 -61.13519960027574 -27.207199662457665 -43.43460044164762 90.33149890565556 -23.811299616566316 -74.69100091391918 -30.89160006870118 -2.835140081947216e-09 6.6812902367392735e-09 1.216190040762064e-09 -4.9436701222647004e-09 1.1255299993581542e-08 1.92109995293884e-09 -2.835140081947216e-09 6.681310115206032e-09 1.216190040762064e-09 7.730910121524428 5.474879855648998 0.41731399283890674 -2.835140081947216e-09 6.6812902367392735e-09 1.216190040762064e-09 2.90554006136521 0.9651829962377875 0.10290200252939893 -2.8351299439291688e-09 6.6812902367392735e-09 1.216190040762064e-09 10.278599710243157 0.7318009818271524 0.025912300303053633 -2.8351500211805954e-09 6.6812902367392735e-09 1.216190040762064e-09 2.221669932038622 -0.7334870246959406 -0.20891999872313852 1.1639300424019146e-12 6.840179926508346e-13 2.1612899382442294e-13 -41.949399712290436 27.839400264486752 -47.809801057904345 12.187099705864581 -5.580640212304768 -21.97249999387758 0.9960349607187351 27.120900222294555 -4.1278999569780765 -2.3459801148175037e-10 -2.249890031676732e-08 -6.72955038319846e-09 -5.407420041690198e-10 -3.8555599848449013e-08 -1.1604400060834988e-08 -2.3459900540508835e-10 -2.249890031676732e-08 -6.729540046395745e-09 -7.730910121524428 5.474879855648998 -0.41731399283890674 -2.3459599878699103e-10 -2.249890031676732e-08 -6.729540046395745e-09 -2.90554006136521 0.9651829962377875 -0.10290200252939893 -2.3460598771653747e-10 -2.249890031676732e-08 -6.72955038319846e-09 -10.278599710243157 0.7318009818271524 -0.025912300303053633 -2.3459001039887984e-10 -2.249890031676732e-08 -6.729559924862504e-09 -2.221669932038622 -0.7334870246959406 0.20891999872313852 -2.0321699793705798e-16 0.0 -3.882510030490358e-19 -4.5997601606938225 7.674080386308983 -12.439799629682128 -0.0935286017600812 38.46060055595046 1.9380200732142205 -12.29350039275504 -20.222499660588177 -25.254499805169793 2.0321699793705798e-16 0.0 3.882510030490358e-19 81.3749010922886 -55.38920050816496 68.39709770696832 3.7931801333992543 77.02980111970412 -4.02667015017614 -0.0074339697217612796 -2.1664499870331846 -1.9061201015824991
-1.5379000069515314 63.61500024795532 10.799000086262822 -17.661800269047866 -17.802300675369615 368.7769943466758 18.931300209321456 7.486980160601177 2.5838900182066196 1.033960012972054 -8.070330395912688 0.9649509832494186 0.36237099065997214 13.06410026416245 5.258639908507803 3.379319975124553 -22.3139001693515 11.00809977209366 -0.0 0.0 0.0 -0.0 0.0 0.0 6.292660172737169e-13 2.9784198904336096e-13 -4.456810121110739e-14 107.67800056714272 42.58280072006615 -61.181098471498224 -27.224599569368273 -43.38319985304869 90.23130003053149 -23.88319931041175 -74.7226998218572 -30.966100357073095 -1.6045799969572985e-09 3.4577801764559157e-09 5.08584012138745e-10 -2.7883400088714884e-09 5.79579002002634e-09 7.784240106799511e-10 -1.6045799969572985e-09 3.457800054922675e-09 5.085770049792123e-10 7.730910121524428 5.474879855648998 0.41731399283890674 -1.6045799969572985e-09 3.4577801764559157e-09 5.085809806725642e-10 2.90554006136521 0.9651829962377875 0.10290200252939893 -1.604569958331585e-09 3.4577801764559157e-09 5.08584012138745e-10 10.278599710243157 0.7318009818271524 0.025912300303053633 -1.6045799969572985e-09 3.4577801764559157e-09 5.085859999854209e-10 2.221669932038622 -0.7334870246959406 -0.20891999872313852 6.290949925743536e-13 2.978399992554285e-13 -4.486009955697879e-14 -42.136099518158154 27.686299866693624 -47.587000287178526 12.097800105108542 -5.517370035588825 -21.799400802194654 0.9920490117295038 27.06949963369562 -4.118840137930877 -2.341099951228133e-10 -1.1356000330490029e-08 -3.496739983457168e-09 -4.751699991862935e-10 -1.9447500009531333e-08 -6.027450093513422e-09 -2.341139956642486e-10 -1.1356000330490029e-08 -3.4967201049904087e-09 -7.730910121524428 5.474879855648998 -0.41731399283890674 -2.341099951228133e-10 -1.1356000330490029e-08 -3.4967300442237885e-09 -2.90554006136521 0.9651829962377875 -0.10290200252939893 -2.3412000890044324e-10 -1.1356000330490029e-08 -3.4967300442237885e-09 -10.278599710243157 0.7318009818271524 -0.025912300303053633 -2.3410400673470213e-10 -1.1356000330490029e-08 -3.496739983457168e-09 -2.221669932038622 -0.7334870246959406 0.20891999872313852 -2.0321699793705798e-16 0.0 -3.882510030490358e-19 -4.615090093399092 7.655599601962221 -12.505099653242036 -0.09402220298953362 38.56350077089128 1.9475099807357186 -12.350099609085998 -20.36370016129985 -25.258000277119425 2.0321699793705798e-16 0.0 3.882510030490358e-19 81.8935993182377 -55.3775994318597 68.86480174057411 3.9088698775609303 77.33840272678363 -4.143780146798356 -0.020669099583597396 -2.307409937020027 -1.930990101010985
-1.5654000068025198 63.48459720611572 10.903000086545944 -17.718000773086025 -17.83200004542812 368.8280021993975 19.026900659586833 7.3084603600382 2.51851998520772 0.9633949807791251 -8.025320303055949 0.9335219745053107 0.4141690108912332 13.07350031200768 5.2952300856652075 3.306099920335193 -22.17760032936931 11.055499577386257 -0.0 0.0 0.0 -0.0 0.0 0.0 -4.10855992441103e-14 -1.705559951095967e-13 -1.588789974252264e-13 107.71400249425785 42.676801198518454 -61.21109666233292 -27.24409975944866 -43.32520130171152 90.11839700355117 -23.869299875450775 -74.71660046292838 -30.951801356045674 -3.666419941816401e-10 6.54867015122462e-10 4.4575498708794635e-11 -6.328399842836526e-10 1.0797600483083526e-09 5.175079901007202e-11 -3.6664400687639945e-10 6.548830172882032e-10 4.456910032730654e-11 7.730910121524428 5.474879855648998 0.41731399283890674 -3.6664298810497804e-10 6.548680090458e-10 4.4575498708794635e-11 2.90554006136521 0.9651829962377875 0.10290200252939893 -3.6663101132875565e-10 6.54869002969138e-10 4.4575498708794635e-11 10.278599710243157 0.7318009818271524 0.025912300303053633 -3.6664000633496416e-10 6.548649775796192e-10 4.458180080395937e-11 2.221669932038622 -0.7334870246959406 -0.20891999872313852 -4.121390113397925e-14 -1.7055900405720184e-13 -1.591270050784391e-13 -42.28159962295235 27.55810063106707 -47.38899993332903 12.00400026346311 -5.451450172361739 -21.617799732542355 0.9825189768466319 26.953500823474002 -4.098169851068303 -4.554110020123689e-10 -1.206269990102913e-09 -6.140219840299392e-10 -7.993940040488429e-10 -2.0290400274410078e-09 -1.051350041793181e-09 -4.554180091719015e-10 -1.2062800287286263e-09 -6.140030000941842e-10 -7.730910121524428 5.474879855648998 -0.41731399283890674 -4.5541000808903093e-10 -1.206269990102913e-09 -6.140160204899114e-10 -2.90554006136521 0.9651829962377875 -0.10290200252939893 -4.554209909419154e-10 -1.206269990102913e-09 -6.140160204899114e-10 -10.278599710243157 0.7318009818271524 -0.025912300303053633 -4.5540802024235503e-10 -1.2062800287286263e-09 -6.140190022599254e-10 -2.221669932038622 -0.7334870246959406 0.20891999872313852 -2.0321699793705798e-16 0.0 -3.882510030490358e-19 -4.637569953504897 7.638829780002546 -12.564599992422956 -0.0945079001426516 38.66369964601537 1.9568099236209255 -12.41010025962362 -20.506000322467898 -25.266900013607952 2.0321699793705798e-16 0.0 3.882510030490358e-19 82.4069016947425 -55.339500636669364 69.34889822818793 4.028180048869537 77.64160165422966 -4.264560089438984 -0.03931469892967231 -2.4494099967514154 -1.985699916262787
-1.5887000066868495 63.38689923286438 11.005400086287409 -17.70959964040691 -17.879500596010978 368.8840097505916 19.040900839838066 7.1528400493281605 2.4854400983968787 0.9039290059874668 -7.9826504037635875 0.912303031353314 0.44469000468212605 13.069199854151512 5.31481992197845 3.2791300646237516 -22.060899717210468 11.081299763202333 -0.0 0.0 0.0 -0.0 0.0 0.0 -2.3670000384688295e-13 -3.435130090795661e-13 1.0406099506074098e-13 107.74299664728456 42.7233011263879 -61.22949719195694 -27.267100421478677 -43.256298353364436 89.98410182409037 -23.717399883404276 -74.64950068452218 -30.794300608879762 -5.245140190455226e-10 1.8004800008450146e-09 5.610089955609743e-10 -9.324349664009542e-10 3.0703200355433403e-09 9.225029886617478e-10 -5.245150129688606e-10 1.8005000780964414e-09 5.609980127080899e-10 7.730910121524428 5.474879855648998 0.41731399283890674 -5.245160068921985e-10 1.8004800008450146e-09 5.610060137909604e-10 2.90554006136521 0.9651829962377875 0.10290200252939893 -5.24506017962652e-10 1.8004800008450146e-09 5.610080016376363e-10 10.278599710243157 0.7318009818271524 0.025912300303053633 -5.245170008155364e-10 1.8004800008450146e-09 5.610160027205069e-10 2.221669932038622 -0.7334870246959406 -0.20891999872313852 -2.368359888660703e-13 -3.435130090795661e-13 1.0389600038944115e-13 -42.33129949444795 27.485700625864933 -47.27579979311982 11.891899783710278 -5.373150164377182 -21.40079949996917 1.0071399945355295 27.255600090463666 -4.151960152103093 -8.524770144169669e-10 -3.044649977493916e-09 -1.3202299600860873e-09 -1.5016399531990585e-09 -5.143379933699141e-09 -2.261590059884897e-09 -8.524819840336567e-10 -3.044649977493916e-09 -1.3202099822269944e-09 -7.730910121524428 5.474879855648998 -0.41731399283890674 -8.524730387236151e-10 -3.0446599167272956e-09 -1.3202299600860873e-09 -2.90554006136521 0.9651829962377875 -0.10290200252939893 -8.524869536503465e-10 -3.044649977493916e-09 -1.320220020852708e-09 -10.278599710243157 0.7318009818271524 -0.025912300303053633 -8.52475026570291e-10 -3.044649977493916e-09 -1.320220020852708e-09 -2.221669932038622 -0.7334870246959406 0.20891999872313852 -2.0321699793705798e-16 0.0 -3.882510030490358e-19 -4.730840028602829 7.646029653161387 -12.645300385013948 -0.09494780034377613 38.74350016118321 1.9635701033519457 -12.453300352350304 -20.597900517750418 -25.281999854315558 2.0321699793705798e-16 0.0 3.882510030490358e-19 82.75899794645666 -55.26399972558404 69.74720070963723 4.138099990729844 77.90780144694175 -4.375790146959464 -0.06273319978319777 -2.599739899062457 -2.0642099525643216
